<svg width="121" height="56" viewBox="0 0 121 56" fill="none" xmlns="http://www.w3.org/2000/svg">
<g clip-path="url(#clip0_635_2605)">
<path d="M28.2305 49.1826H29.4471C29.9217 49.1826 30.3217 49.2185 30.6528 49.2902C30.9811 49.3619 31.2956 49.5082 31.6018 49.7261C32.3467 50.2641 32.7192 51.02 32.7192 51.9912C32.7192 52.9623 32.3302 53.7155 31.5522 54.2479C31.2376 54.4603 30.9204 54.6038 30.5976 54.6755C30.2748 54.7473 29.8858 54.7831 29.4361 54.7831H28.236V49.1826H28.2305ZM29.1243 49.9827V53.9858H29.4968C30.1644 53.9858 30.6776 53.8534 31.0362 53.5858C31.5384 53.2189 31.7894 52.6864 31.7894 51.9939C31.7894 51.6684 31.7232 51.3594 31.5935 51.0697C31.4639 50.78 31.2818 50.5483 31.0418 50.3772C30.6831 50.1151 30.1672 49.9855 29.494 49.9855H29.1243V49.9827Z" fill="#0B0A09"/>
<path d="M37.2592 49.1826V49.9827H34.9583V51.329H37.193V52.1291H34.9583V53.9858H37.2592V54.7859H34.0645V49.1826H37.2592Z" fill="#0B0A09"/>
<path d="M41.8778 50.0254L41.166 50.4254C41.1053 50.2875 41.017 50.1688 40.9011 50.0723C40.7411 49.9398 40.5397 49.8709 40.2969 49.8709C40.0597 49.8709 39.861 49.9288 39.7038 50.0474C39.5465 50.1633 39.4693 50.3288 39.4693 50.5358C39.4693 50.8337 39.6762 51.0655 40.09 51.2255L40.6694 51.449C41.5853 51.7966 42.0433 52.3483 42.0433 53.107C42.0433 53.6367 41.8667 54.0671 41.5136 54.4009C41.1605 54.7348 40.7108 54.9003 40.1645 54.9003C39.5962 54.9003 39.141 54.7099 38.7989 54.332C38.523 54.0285 38.3602 53.6643 38.3105 53.2422L39.1879 53.0574C39.1989 53.336 39.2817 53.5733 39.4362 53.7692C39.6072 53.9871 39.8555 54.0975 40.1811 54.0975C40.4956 54.0975 40.7356 54.0064 40.9011 53.8216C41.0667 53.6367 41.1494 53.416 41.1494 53.1622C41.1494 52.9112 41.0722 52.7153 40.9177 52.5746C40.7632 52.4339 40.5618 52.3125 40.3135 52.2104L39.759 51.9787C38.9699 51.6476 38.5754 51.1758 38.5754 50.5606C38.5754 50.1219 38.7409 49.766 39.072 49.4874C39.4031 49.2087 39.8031 49.0708 40.2721 49.0708C40.7466 49.0708 41.1329 49.1977 41.4308 49.4543C41.6129 49.6115 41.7619 49.8019 41.8778 50.0254Z" fill="#0B0A09"/>
<path d="M43.3926 49.1826H44.2865V54.7859H43.3926V49.1826Z" fill="#0B0A09"/>
<path d="M48.9143 52.6739V51.8738H51.2979V52.0504C51.2979 52.7705 51.1241 53.3691 50.7765 53.8437C50.2578 54.5472 49.5322 54.9003 48.5998 54.9003C47.7721 54.9003 47.0769 54.6272 46.514 54.0837C45.9292 53.5181 45.6367 52.8229 45.6367 51.9952C45.6367 51.1731 45.9126 50.4861 46.4644 49.9288C47.0272 49.3577 47.7555 49.0708 48.6494 49.0708C49.306 49.0708 49.8937 49.2501 50.4123 49.606C50.6717 49.7881 50.8841 49.9895 51.0496 50.2157L50.4206 50.7923C49.9847 50.1799 49.3943 49.8709 48.6494 49.8709C48.0425 49.8709 47.5431 50.0723 47.1513 50.4723C46.7596 50.8724 46.5637 51.38 46.5637 51.9925C46.5637 52.6022 46.7623 53.1043 47.1624 53.5016C47.5624 53.8988 48.048 54.0975 48.6218 54.0975C49.0743 54.0975 49.4578 53.965 49.7723 53.6974C50.0868 53.4298 50.2799 53.0877 50.3516 52.6739H48.9143Z" fill="#0B0A09"/>
<path d="M53.5404 54.7864H52.6465V48.8135L56.8345 53.0566V49.1832H57.7283V55.123L53.5404 50.8799V54.7864Z" fill="#0B0A09"/>
<path d="M64.7957 50.0254L64.084 50.4254C64.0233 50.2875 63.935 50.1688 63.8191 50.0723C63.6591 49.9398 63.4577 49.8709 63.2149 49.8709C62.9776 49.8709 62.779 49.9288 62.6217 50.0474C62.4645 50.1633 62.3872 50.3288 62.3872 50.5358C62.3872 50.8337 62.5942 51.0655 63.008 51.2255L63.5873 51.449C64.5033 51.7966 64.9613 52.3483 64.9613 53.107C64.9613 53.6367 64.7847 54.0671 64.4316 54.4009C64.0784 54.7348 63.6287 54.9003 63.0825 54.9003C62.5142 54.9003 62.0589 54.7099 61.7168 54.332C61.4409 54.0285 61.2782 53.6643 61.2285 53.2422L62.1058 53.0574C62.1169 53.336 62.1996 53.5733 62.3541 53.7692C62.5252 53.9871 62.7735 54.0975 63.099 54.0975C63.4135 54.0975 63.6536 54.0064 63.8191 53.8216C63.9846 53.6367 64.0674 53.416 64.0674 53.1622C64.0674 52.9112 63.9901 52.7153 63.8356 52.5746C63.6811 52.4339 63.4798 52.3125 63.2315 52.2104L62.6769 51.9787C61.8879 51.6476 61.4934 51.1758 61.4934 50.5606C61.4934 50.1219 61.6589 49.766 61.99 49.4874C62.321 49.2087 62.7211 49.0708 63.1901 49.0708C63.6646 49.0708 64.0508 49.1977 64.3488 49.4543C64.5309 49.6115 64.6799 49.8019 64.7957 50.0254Z" fill="#0B0A09"/>
<path d="M69.1088 49.9827H67.7845V54.7859H66.8907V49.9827H65.5664V49.1826H69.1088V49.9827Z" fill="#0B0A09"/>
<path d="M70.1426 49.1826H71.0365V52.5622C71.0365 53.0009 71.0944 53.3237 71.2103 53.5306C71.3041 53.6961 71.442 53.8313 71.6296 53.9389C71.8145 54.0465 72.0324 54.0989 72.2862 54.0989C72.7939 54.0989 73.1525 53.9086 73.3622 53.5306C73.4781 53.3182 73.536 52.9954 73.536 52.5622V49.1826H74.4299V52.7857C74.4299 53.3733 74.2505 53.8589 73.8919 54.2424C73.4836 54.6811 72.9483 54.899 72.2862 54.899C71.6241 54.899 71.0889 54.6811 70.6806 54.2424C70.3219 53.8589 70.1426 53.3733 70.1426 52.7857V49.1826Z" fill="#0B0A09"/>
<path d="M76.0449 49.1826H77.2616C77.7361 49.1826 78.1362 49.2185 78.4672 49.2902C78.7955 49.3619 79.11 49.5082 79.4163 49.7261C80.1612 50.2641 80.5336 51.02 80.5336 51.9912C80.5336 52.9623 80.1446 53.7155 79.3666 54.2479C79.0521 54.4603 78.7348 54.6038 78.412 54.6755C78.0893 54.7473 77.7003 54.7831 77.2506 54.7831H76.0504V49.1826H76.0449ZM76.9388 49.9827V53.9858H77.3113C77.9789 53.9858 78.492 53.8534 78.8507 53.5858C79.3528 53.2189 79.6039 52.6864 79.6039 51.9939C79.6039 51.6684 79.5377 51.3594 79.408 51.0697C79.2783 50.78 79.0962 50.5483 78.8562 50.3772C78.4976 50.1151 77.9817 49.9855 77.3085 49.9855H76.9388V49.9827Z" fill="#0B0A09"/>
<path d="M81.8789 49.1826H82.7728V54.7859H81.8789V49.1826Z" fill="#0B0A09"/>
<path d="M84.9838 49.9123C85.5577 49.3522 86.275 49.0708 87.1357 49.0708C87.9965 49.0708 88.7138 49.3522 89.2877 49.9123C89.8615 50.4723 90.1484 51.1676 90.1484 51.9925C90.1484 52.8146 89.8615 53.5043 89.2904 54.0616C88.7193 54.6189 88.002 54.8975 87.1357 54.8975C86.2694 54.8975 85.5494 54.6189 84.9783 54.0616C84.4072 53.5043 84.123 52.8146 84.123 51.9925C84.123 51.1676 84.41 50.4723 84.9838 49.9123ZM85.6349 53.5126C86.0239 53.9043 86.5233 54.1002 87.1385 54.1002C87.751 54.1002 88.2503 53.9043 88.6393 53.5126C89.0283 53.1208 89.2242 52.616 89.2242 51.9952C89.2242 51.3745 89.0283 50.8668 88.6393 50.4696C88.2503 50.0723 87.751 49.8736 87.1385 49.8736C86.526 49.8736 86.0239 50.0723 85.6349 50.4696C85.2459 50.8668 85.05 51.3745 85.05 51.9952C85.05 52.616 85.2459 53.1181 85.6349 53.5126Z" fill="#0B0A09"/>
<path d="M42.2921 11.1851L32.4043 39.5904H37.4006L40.2285 31.0683H52.1882L55.165 39.5904H60.1613L50.2735 11.1851H42.2921ZM41.6245 27.2941L46.1104 14.6364H46.458L50.886 27.2941H41.6245Z" fill="#0B0A09"/>
<path d="M85.9511 26.6072C86.8753 25.1201 87.3388 23.2938 87.3388 21.128C87.3388 19.5582 87.085 18.1595 86.5746 16.929C86.0642 15.6986 85.3359 14.6557 84.3896 13.8032C83.4405 12.9507 82.2791 12.3024 80.9024 11.8555C79.5257 11.4085 77.9697 11.1851 76.2344 11.1851H63.7422V39.5904L68.5592 39.5987V31.0765L76.2316 31.0683H76.8551L81.9563 39.5904H87.6809L81.9563 30.0144C83.6971 29.2309 85.0269 28.0942 85.9511 26.6072ZM80.8941 25.6774C79.8457 26.6872 78.3559 27.192 76.4303 27.192H68.5619V14.7909H76.4303C78.3559 14.7909 79.8457 15.2958 80.8941 16.3055C81.9425 17.3153 82.4667 18.8768 82.4667 20.9901C82.4667 23.1062 81.9425 24.6677 80.8941 25.6774Z" fill="#0B0A09"/>
<path d="M117.688 18.9377C117.015 17.07 116.066 15.5029 114.847 14.2311C113.627 12.9593 112.162 11.9992 110.455 11.3508C108.747 10.7025 106.846 10.377 104.755 10.377C102.663 10.377 100.757 10.7025 99.0383 11.3508C97.3168 11.9992 95.8491 12.962 94.6269 14.2311C93.4075 15.5029 92.4639 17.0727 91.8018 18.9377C91.1397 20.8055 90.8086 22.9547 90.8086 25.3907C90.8086 27.8268 91.1397 29.976 91.8018 31.8437C92.4639 33.7115 93.4047 35.2785 94.6269 36.5504C95.8463 37.8222 97.3168 38.7823 99.0383 39.4306C100.757 40.079 102.663 40.4045 104.755 40.4045C106.846 40.4045 108.747 40.079 110.455 39.4306C112.162 38.7823 113.627 37.8222 114.847 36.5504C116.066 35.2785 117.012 33.7087 117.688 31.8437C118.361 29.976 118.698 27.8268 118.698 25.3907C118.698 22.9547 118.361 20.8027 117.688 18.9377ZM113.197 30.1305C112.706 31.4768 112.046 32.5914 111.216 33.4715C110.386 34.3543 109.412 35.0082 108.294 35.4386C107.174 35.8662 105.974 36.0814 104.694 36.0814C103.411 36.0814 102.211 35.8662 101.094 35.4386C99.9736 35.0109 98.9997 34.3543 98.172 33.4715C97.3416 32.5914 96.6822 31.4768 96.1912 30.1305C95.7001 28.7842 95.4545 27.195 95.4545 25.3576C95.4545 23.523 95.7001 21.9339 96.1912 20.5848C96.6822 19.2385 97.3416 18.1239 98.172 17.2438C99.0024 16.3637 99.9763 15.7071 101.094 15.2767C102.211 14.8491 103.414 14.6339 104.694 14.6339C105.977 14.6339 107.177 14.8491 108.294 15.2767C109.412 15.7043 110.388 16.3609 111.216 17.2438C112.046 18.1266 112.706 19.2412 113.197 20.5848C113.688 21.9311 113.933 23.523 113.933 25.3576C113.933 27.1923 113.688 28.7842 113.197 30.1305Z" fill="#0B0A09"/>
<path d="M14.6862 29.9206L5.49365 11.1216L0.753906 11.1299V39.5821L6.07026 39.5738V23.2661H6.43995L14.3855 39.5904H14.9897L22.9325 23.2661H23.3022V22.5075V39.5738L28.613 39.5821V11.1299L23.8788 11.1216L14.6862 29.9206Z" fill="#0B0A09"/>
<path d="M50.8827 0.820312H46.6092L44.6973 6.68843H48.1734L50.8827 0.820312Z" fill="#0B0A09"/>
</g>
<defs>
<clipPath id="clip0_635_2605">
<rect width="121" height="55" fill="white" transform="translate(0 0.5)"/>
</clipPath>
</defs>
</svg>
